<?xml version="1.0" encoding="UTF-8" standalone="no"?>
<svg
   xmlns:dc="http://purl.org/dc/elements/1.1/"
   xmlns:cc="http://creativecommons.org/ns#"
   xmlns:rdf="http://www.w3.org/1999/02/22-rdf-syntax-ns#"
   xmlns:svg="http://www.w3.org/2000/svg"
   xmlns="http://www.w3.org/2000/svg"
   xmlns:sodipodi="http://sodipodi.sourceforge.net/DTD/sodipodi-0.dtd"
   xmlns:inkscape="http://www.inkscape.org/namespaces/inkscape"
   viewBox="0 0 400.00001 400.00001"
   version="1.1"
   id="svg32"
   sodipodi:docname="holding-phone-colour.svg"
   width="400"
   height="400"
   inkscape:version="0.92.4 (5da689c313, 2019-01-14)">
  <metadata
     id="metadata36">
    <rdf:RDF>
      <cc:Work
         rdf:about="">
        <dc:format>image/svg+xml</dc:format>
        <dc:type
           rdf:resource="http://purl.org/dc/dcmitype/StillImage" />
        <dc:title>holding-phone-colour</dc:title>
      </cc:Work>
    </rdf:RDF>
  </metadata>
  <sodipodi:namedview
     pagecolor="#ffffff"
     bordercolor="#666666"
     borderopacity="1"
     objecttolerance="10"
     gridtolerance="10"
     guidetolerance="10"
     inkscape:pageopacity="0"
     inkscape:pageshadow="2"
     inkscape:window-width="1366"
     inkscape:window-height="705"
     id="namedview34"
     showgrid="false"
     inkscape:zoom="0.36350755"
     inkscape:cx="-31.145952"
     inkscape:cy="324.61499"
     inkscape:window-x="-8"
     inkscape:window-y="-8"
     inkscape:window-maximized="1"
     inkscape:current-layer="svg32" />
  <defs
     id="defs4">
    <style
       id="style2">.cls-1{fill:#f2f2f2;}.cls-2{fill:#de8e68;}.cls-3{fill:#74d5de;}.cls-4{fill:#fed385;}.cls-5,.cls-6{fill:none;stroke:#fed385;stroke-miterlimit:10;stroke-width:3px;}.cls-6{stroke-linecap:round;}</style>
  </defs>
  <title
     id="title6">holding-phone-colour</title>
  <g
     id="Layer_2"
     data-name="Layer 2"
     transform="matrix(0.56360023,0,0,0.56360023,1.2698028,17.041512)">
    <g
       id="Vector">
      <path
         class="cls-1"
         d="m 497.44,15.78 c 82.39,11.67 185.76,56 204.53,121.3 18.78,65.47 -47,151.75 -109.62,220.78 C 529.75,427.05 470.37,479 397.62,514 324.88,548.85 238.93,567 181.08,534.13 123.39,501.49 94,417.92 59.77,344.32 25.43,270.56 -13.82,206.61 4.77,161.78 23.4,117.12 99.87,91.57 157.39,75.5 214.91,59.43 253.31,52.66 303.39,38.96 353.3,25.08 414.88,4.11 497.44,15.78 Z"
         id="path8"
         inkscape:connector-curvature="0"
         style="fill:#f2f2f2" />
      <path
         class="cls-2"
         d="m 235.25,35.51 c -13.21,0 -17.34,20.64 -17.34,28.89 0,14 14.86,71.82 28.89,71.82 14.03,0 28.9,-57 28.9,-63.56 0,-6.56 -17.34,-37.15 -40.45,-37.15 z"
         id="path10"
         inkscape:connector-curvature="0"
         style="fill:#de8e68" />
      <rect
         class="cls-3"
         x="226.09"
         y="15.8"
         width="253.06"
         height="444.29001"
         rx="25.35"
         ry="25.35"
         transform="rotate(11.1,352.70007,238.0088)"
         id="rect12"
         style="fill:#74d5de" />
      <path
         class="cls-4"
         d="m 449.19,30.59 -2.51,12.79 a 12.06,12.06 0 0 1 -14.13,9.49 L 346.93,36.07 A 12.07,12.07 0 0 1 337.44,21.94 L 340,9.15"
         id="path14"
         inkscape:connector-curvature="0"
         style="fill:#fed385" />
      <line
         class="cls-5"
         x1="175.09"
         y1="386.56"
         x2="445.73001"
         y2="439.67001"
         id="line16"
         style="fill:none;stroke:#fed385;stroke-width:3px;stroke-miterlimit:10" />
      <circle
         class="cls-4"
         cx="310.67001"
         cy="434.45001"
         r="10.03"
         id="circle18"
         style="fill:#fed385" />
      <path
         class="cls-2"
         d="m 219.57,147 c -17.34,0 -28.9,13.2 -28.9,27.24 0,46.22 26.42,84.19 38,84.19 24.76,0 33.84,-13.21 33.84,-22.29 C 262.49,229.49 259.19,147 219.57,147 Z"
         id="path20"
         inkscape:connector-curvature="0"
         style="fill:#de8e68" />
      <path
         class="cls-2"
         d="m 210.49,268.29 c 4.95,4.95 42.92,45.4 42.92,73.46 0,19 -4.13,33.84 -38.8,33.84 -16.51,0 -62.73,-65.21 -62.73,-91.62 0,-14.86 9.08,-49.53 34.67,-49.53 7.43,0 23.94,13.21 26.41,16.51 a 92.46,92.46 0 0 0 8.08,7.43 C 220,263.75 214.26,292 214.26,292"
         id="path22"
         inkscape:connector-curvature="0"
         style="fill:#de8e68" />
      <path
         class="cls-6"
         d="m 222.65,281.88 c 0,0 -11.75,-14.83 -19.18,-21.43"
         id="path24"
         inkscape:connector-curvature="0"
         style="fill:none;stroke:#fed385;stroke-width:3px;stroke-linecap:round;stroke-miterlimit:10" />
      <path
         class="cls-2"
         d="m 204.32,434.35 c -2.47,6.61 -4.15,70.43 3.28,105.92 -5,25.59 -24.77,109 -24.77,109 H 362 l 18.16,-72.64 c 0,0 110.56,-96.63 121.29,-113.95 10.73,-17.32 35.91,-118.45 35.55,-127.94 -0.29,-6.6 -120.52,-108.14 -123.82,-112.27 -3.3,-4.13 -61.36,54 35.22,120.9 -0.83,8.25 -0.78,44.69 -0.78,44.69 0,0 -67.18,23.09 -74,28.07 -6.82,4.98 -19.87,40.07 -22.23,47.94 -9.13,-1.78 -147.07,-29.72 -147.07,-29.72 z"
         id="path26"
         inkscape:connector-curvature="0"
         style="fill:#de8e68" />
      <path
         class="cls-6"
         d="m 337.31,505.43 c 2.25,-8.6 13.16,-39.49 15.87,-46.86"
         id="path28"
         inkscape:connector-curvature="0"
         style="fill:none;stroke:#fed385;stroke-width:3px;stroke-linecap:round;stroke-miterlimit:10" />
    </g>
  </g>
</svg>
